<?xml version="1.0" standalone="no"?>
<!DOCTYPE svg PUBLIC "-//W3C//DTD SVG 20010904//EN"
 "http://www.w3.org/TR/2001/REC-SVG-20010904/DTD/svg10.dtd">
<svg version="1.0" xmlns="http://www.w3.org/2000/svg"
 width="1280.000000pt" height="1280.000000pt" viewBox="0 0 1280.000000 1280.000000"
 preserveAspectRatio="xMidYMid meet">
<metadata>
Created by potrace 1.15, written by Peter Selinger 2001-2017
</metadata>
<g transform="translate(0.000000,1280.000000) scale(0.100000,-0.100000)"
fill="#000000" stroke="none">
<path d="M8725 9648 c-40 -15 -103 -59 -139 -96 -40 -43 -66 -128 -62 -206 4
-69 21 -108 107 -246 29 -47 74 -123 101 -170 27 -47 73 -125 103 -174 30 -49
55 -91 55 -93 0 -2 13 -23 29 -46 15 -23 30 -46 32 -52 2 -5 42 -73 88 -150
46 -77 93 -156 105 -176 62 -106 203 -341 232 -386 19 -29 34 -54 34 -56 0 -2
38 -67 85 -143 46 -76 99 -165 117 -198 70 -126 173 -196 290 -196 43 0 76 7
107 22 54 26 161 132 161 160 0 11 5 28 11 39 15 30 13 117 -6 168 -15 43 -60
122 -338 586 -66 110 -128 214 -137 230 -9 17 -50 84 -90 150 -40 66 -81 135
-91 152 -10 18 -43 74 -74 124 -30 51 -55 94 -55 96 0 3 -13 24 -30 48 -16 24
-30 46 -30 50 0 4 -13 26 -30 50 -16 24 -30 45 -30 48 0 2 -50 86 -111 188
-115 191 -143 225 -212 260 -48 25 -176 35 -222 17z"/>
<path d="M8197 8989 c-43 -27 -81 -49 -83 -49 -2 0 -23 -11 -45 -26 -22 -14
-55 -33 -72 -43 -18 -10 -69 -41 -115 -70 -46 -28 -85 -51 -88 -51 -2 0 -28
-15 -57 -34 -28 -18 -176 -107 -327 -196 -151 -89 -299 -178 -327 -196 -29
-19 -55 -34 -57 -34 -3 0 -42 -23 -88 -51 -46 -29 -99 -61 -118 -72 -19 -10
-47 -28 -62 -38 -14 -11 -29 -19 -33 -19 -3 0 -31 -16 -61 -35 -30 -19 -57
-35 -60 -35 -3 0 -25 -14 -50 -30 -47 -33 -52 -50 -26 -92 9 -15 73 -121 141
-235 68 -114 139 -231 158 -260 18 -28 33 -54 33 -56 0 -3 37 -65 81 -138 45
-74 106 -177 136 -229 31 -52 59 -99 63 -105 4 -5 17 -26 28 -45 10 -19 44
-75 74 -125 30 -49 95 -157 144 -240 49 -82 96 -161 104 -175 8 -14 29 -49 45
-78 17 -28 36 -52 43 -52 7 0 33 14 57 30 24 17 46 30 50 30 4 0 26 14 50 30
24 17 46 30 50 30 4 0 25 13 48 28 23 16 96 59 162 97 66 38 139 82 163 98 24
16 48 27 55 24 12 -4 70 -106 252 -442 119 -218 153 -280 174 -318 10 -18 44
-81 76 -142 32 -60 61 -114 65 -120 4 -5 29 -50 55 -100 26 -49 68 -125 91
-167 24 -43 44 -79 44 -82 0 -3 15 -31 34 -63 18 -32 49 -87 68 -123 19 -36
46 -85 60 -110 14 -25 49 -90 78 -145 29 -55 56 -104 60 -110 7 -9 49 -88 126
-230 78 -146 98 -183 124 -230 31 -56 58 -105 155 -285 87 -161 117 -217 142
-260 21 -37 64 -117 141 -260 133 -249 249 -332 463 -331 79 0 95 4 161 35 83
40 172 118 212 187 57 100 71 237 36 352 -21 69 -152 280 -418 674 -34 51 -62
94 -62 97 0 3 -24 41 -54 83 -29 43 -55 83 -57 88 -2 6 -62 98 -134 205 -71
107 -135 206 -142 218 -7 13 -33 53 -58 88 -25 36 -45 67 -45 70 0 3 -29 49
-65 101 -36 52 -65 97 -65 100 0 2 -20 32 -43 66 -24 34 -136 204 -248 377
-112 173 -207 317 -211 318 -5 2 -8 8 -8 14 0 5 -29 52 -65 103 -36 52 -65 97
-65 100 0 4 -20 35 -45 69 -24 35 -51 74 -58 87 -7 13 -65 104 -130 202 -64
98 -117 184 -117 191 0 8 21 27 48 43 53 33 330 200 371 223 27 15 100 60 174
107 l38 24 -22 37 c-12 20 -32 55 -44 77 -13 22 -60 101 -105 175 -45 74 -94
155 -108 180 -13 25 -31 52 -38 61 -8 8 -14 19 -14 23 0 4 -16 32 -35 62 -19
30 -35 57 -35 60 0 3 -13 25 -30 49 -16 24 -30 46 -30 49 0 4 -15 30 -34 59
-19 28 -73 120 -121 202 -48 83 -103 174 -121 202 -19 29 -34 55 -34 59 0 3
-8 18 -19 32 -10 15 -49 79 -86 142 -37 63 -77 131 -89 150 -11 20 -39 66 -61
103 -22 38 -46 67 -55 66 -8 0 -50 -22 -93 -50z"/>
<path d="M5930 7959 c-67 -10 -110 -31 -161 -80 -65 -62 -82 -99 -87 -196 -5
-93 5 -122 101 -278 27 -44 59 -98 72 -120 12 -22 61 -103 107 -180 103 -170
255 -425 284 -474 12 -20 42 -71 68 -114 25 -43 46 -81 46 -84 0 -2 13 -23 29
-46 16 -23 37 -58 48 -77 47 -82 188 -319 219 -367 19 -29 34 -55 34 -59 0 -3
14 -25 30 -49 17 -24 30 -46 30 -50 0 -15 82 -124 114 -153 52 -45 84 -60 152
-67 183 -21 336 127 328 316 -2 53 -9 76 -40 129 -52 92 -66 116 -114 194 -23
38 -50 83 -60 100 -10 17 -44 74 -75 126 -32 52 -66 110 -76 128 -69 119 -235
397 -275 459 -19 29 -34 55 -34 59 0 3 -13 25 -30 49 -16 24 -30 46 -30 50 0
4 -13 26 -30 50 -16 24 -30 45 -30 48 0 2 -43 74 -95 161 -52 87 -95 159 -95
161 0 10 -166 272 -179 283 -82 66 -167 94 -251 81z"/>
<path d="M2785 4021 c-33 -9 -77 -25 -99 -35 -56 -28 -142 -117 -166 -173 -12
-26 -25 -57 -31 -68 -5 -11 -10 -132 -12 -270 l-2 -250 -212 -3 -213 -2 6
-193 c3 -105 7 -198 10 -204 5 -18 5309 -19 5320 -2 8 14 36 340 29 356 -3 9
-28 13 -72 14 -66 0 -190 11 -285 25 l-47 6 -5 52 c-22 220 -26 281 -26 356 0
197 -117 344 -313 393 -61 16 -223 17 -1944 16 -1697 -2 -1884 -3 -1938 -18z"/>
</g>
</svg>
